#N canvas 0 36 3840 2062 12;
#N canvas 1967 548 667 596 sample 0;
#X obj 31 181 readsf~;
#X obj 31 86 openpanel;
#X msg 31 150 open \$1 \, start;
#X obj 31 115 symbol;
#X obj 31 211 outlet~;
#X obj 31 56 inlet;
#X obj 265 62 inlet;
#X obj 265 87 symbol;
#X connect 0 0 4 0;
#X connect 0 1 3 0;
#X connect 0 1 7 0;
#X connect 1 0 3 0;
#X connect 2 0 0 0;
#X connect 3 0 2 0;
#X connect 5 0 1 0;
#X connect 6 0 7 0;
#X connect 7 0 2 0;
#X restore 1918 1395 pd sample;
#X obj 1865 1330 bng 19 250 50 0 empty empty empty 0 -10 0 12 #fcfcfc #000000 #000000;
#X obj 1895 1566 hsl 162 19 0.01 1.01 0 0 empty empty empty -2 -10 0 12 #fcfcfc #000000 #000000 0 1;
#X obj 1879 1972 *~;
#N canvas 734 459 280 329 crossfade~ 0;
#X obj 25 23 inlet~;
#X obj 114 23 inlet~;
#X obj 204 23 inlet;
#X obj 25 108 outlet~;
#X obj 25 64 expr~ $v1*(1-$v3)+ $v2*$v3;
#X connect 0 0 4 0;
#X connect 1 0 4 1;
#X connect 2 0 4 2;
#X connect 4 0 3 0;
#X restore 1874 1534 pd crossfade~;
#X obj 1965 1508 hsl 80 19 0 1 0 0 empty empty empty -2 -10 0 12 #fcfcfc #000000 #000000 0 1;
#X floatatom 1874 1459 5 0 0 0 - - - 0;
#X obj 1874 1485 delread~ lat;
#X obj 1927 1427 delwrite~ lat 1000;
#X msg 1843 1429 200;
#X obj 1843 1402 loadbang;
#N canvas 0 50 450 250 (subpatch) 0;
#X array weights 32 float 3;
#A 0 0.819326 0.892407 0.600322 1.24531 0.742383 0.7337 1.27334 0.843486 0.968391 0.944248 0.859572 0.74471 1.01275 1.13103 0.996662 0.830504 1.04039 0.798842 0.707554 0.918691 0.790713 0.32472 1.0733 1.19001 0.873654 1.93085 1.31344 1.55024 1.3366 1.15342 0.528565 1.06793;
#X coords 0 1 32 -1 810 450 1 0 0;
#X restore -3 -1 graph;
#X obj 1918 1458 nn~ darbouka.ts;
#N canvas 1169 483 1147 1282 messageProcessing 0;
#X obj 131 96 inlet;
#X obj 187 482 list length;
#X obj 33 509 list;
#X obj 204 534 array size weights;
#X obj 131 456 t b a a;
#X obj 14 477 del 1;
#X floatatom 226 507 16 0 0 0 - - - 0;
#N canvas 324 362 450 300 reset_sliders 0;
#X obj 37 37 inlet;
#X obj 37 101 send weights_roll_rec;
#X obj 37 131 send weights_shift_rec;
#X msg 37 68 0;
#X obj 37 158 send weights_multiply_rec;
#X obj 37 185 send weights_flip_rec;
#X obj 116 49 loadbang;
#X connect 0 0 3 0;
#X connect 3 0 1 0;
#X connect 3 0 2 0;
#X connect 3 0 4 0;
#X connect 3 0 5 0;
#X connect 6 0 3 0;
#X restore 14 597 pd reset_sliders;
#X text 31 20 Routes the messages other than audio signal;
#X text 31 40 Received from the nn~ object.;
#X obj 45 535 array set weights;
#X obj 41 560 array set b_orig;
#X obj 187 559 array size b_orig;
#X obj 203 217 list length;
#X obj 203 269 list store;
#X obj 203 298 list split 1;
#X obj 203 338 list trim;
#X obj 131 134 route layer layers, f 21;
#X obj 203 362 print -n;
#X obj 203 242 until;
#X obj 203 179 t a a;
#X text 307 198 This displays layers;
#X text 308 212 one by one in new lines;
#N canvas 0 50 450 250 (subpatch) 0;
#X array b_orig 32 float 3;
#A 0 0.819326 0.892407 0.600322 1.24531 0.742383 0.7337 1.27334 0.843486 0.968391 0.944248 0.859572 0.74471 1.01275 1.13103 0.996662 0.830504 1.04039 0.798842 0.707554 0.918691 0.790713 0.32472 1.0733 1.19001 0.873654 1.93085 1.31344 1.55024 1.3366 1.15342 0.528565 1.06793;
#X coords 0 1 32 -1 200 140 1;
#X restore 437 357 graph;
#X connect 0 0 17 0;
#X connect 1 0 3 0;
#X connect 1 0 6 0;
#X connect 1 0 12 0;
#X connect 2 0 10 0;
#X connect 2 0 11 0;
#X connect 4 0 5 0;
#X connect 4 1 2 1;
#X connect 4 2 1 0;
#X connect 5 0 2 0;
#X connect 5 0 7 0;
#X connect 13 0 19 0;
#X connect 14 0 15 0;
#X connect 15 0 16 0;
#X connect 15 1 14 1;
#X connect 16 0 18 0;
#X connect 17 0 4 0;
#X connect 17 1 20 0;
#X connect 19 0 14 0;
#X connect 20 0 13 0;
#X connect 20 1 14 1;
#X restore 3304 1291 pd messageProcessing;
#X obj 3304 1262 r messageOutput;
#X obj 2100 1506 s messageOutput;
#X obj 1162 198 bng 20 250 50 0 printLayers empty empty 0 -10 0 12 #fcfcfc #000000 #000000;
#X obj 1160 240 bng 20 250 50 0 bend empty empty 0 -10 0 12 #fcfcfc #000000 #000000;
#X obj 3621 1385 array get weights;
#X obj 3621 1462 list trim;
#X obj 3702 1355 symbol;
#X obj 3621 1319 t b b;
#X obj 3621 1434 list prepend set_weights;
#X obj 3621 1410 list prepend;
#X obj 3741 1332 symbol;
#X text 3621 1263 BENDING ACTION;
#X obj 3621 1288 r bend;
#X text 1194 242 Click to bend;
#X text 1190 199 Click to print layers;
#X obj 3308 1410 r printLayers;
#X msg 3308 1435 layers;
#X text 552 1476 Enter layer name;
#X obj 557 1526 symbol;
#X obj 1933 1346 r messageInput;
#X obj 3308 1460 s messageInput;
#X obj 3621 1488 s messageInput;
#X obj 3741 1299 r layerName;
#X obj 557 1551 s layerName;
#X obj 3311 1524 r layerName;
#X obj 3311 1549 symbol;
#X obj 3311 1599 s messageInput;
#X msg 3311 1574 get_weights \$1;
#X obj 1076 136 metro 100;
#X obj 1075 97 tgl 20 0 empty empty empty 0 -10 0 12 #fcfcfc #000000 #000000 0 1;
#X obj 1156 282 bng 20 250 50 0 resetModel empty empty 0 -10 0 12 #fcfcfc #000000 #000000;
#X obj 3625 1535 r resetModel;
#X msg 3625 1563 reload;
#X obj 3625 1588 s messageInput;
#X msg 557 1501 encoder.encoder.net.1.weight, f 79;
#X obj 2391 1566 cyclone/zl.lookup;
#X obj 2167 224 hsl 170 20 0 13 0 0 empty empty empty -2 -10 0 12 #fcfcfc #000000 #000000 0 1;
#X obj 2111 257 int;
#X obj 2111 282 change;
#X floatatom 2111 307 5 0 0 0 - - - 0;
#X obj 837 1363 list prepend set;
#X obj 837 1388 list trim;
#X obj 837 1413 t a b;
#X obj 2391 1591 s layerDummy;
#X obj 850 1318 r layerDummy;
#X obj 851 1468 del 50;
#X obj 599 1348 r resetModel;
#X obj 2306 392 loadbang;
#X obj 2012 152 loadbang;
#X msg 2266 453 mode lookup encoder.encoder.net.0.weight encoder.encoder.net.1.weight encoder.encoder.net.1.bias encoder.encoder.net.3.weight encoder.encoder.net.4.weight encoder.encoder.net.4.bias encoder.encoder.net.6.weight encoder.encoder.net.7.weight encoder.encoder.net.7.bias encoder.encoder.net.9.weight encoder.encoder.net.10.weight encoder.encoder.net.10.bias encoder.encoder.net.12.weight encoder.encoder.net.14.weight decoder.net.0.weight decoder.net.1.net.1.weight decoder.net.2.net.branches.0.net.0.net.aligned.branches.0.1.weight decoder.net.2.net.branches.0.net.0.net.aligned.branches.0.3.weight decoder.net.2.net.branches.0.net.1.net.aligned.branches.0.1.weight decoder.net.2.net.branches.0.net.1.net.aligned.branches.0.3.weight decoder.net.2.net.branches.0.net.2.net.aligned.branches.0.1.weight decoder.net.2.net.branches.0.net.2.net.aligned.branches.0.3.weight decoder.net.3.net.1.weight decoder.net.4.net.branches.0.net.0.net.aligned.branches.0.1.weight decoder.net.4.net.branches.0.net.0.net.aligned.branches.0.3.weight decoder.net.4.net.branches.0.net.1.net.aligned.branches.0.1.weight decoder.net.4.net.branches.0.net.1.net.aligned.branches.0.3.weight decoder.net.4.net.branches.0.net.2.net.aligned.branches.0.1.weight decoder.net.4.net.branches.0.net.2.net.aligned.branches.0.3.weight decoder.net.5.net.1.weight decoder.net.6.net.branches.0.net.0.net.aligned.branches.0.1.weight decoder.net.6.net.branches.0.net.0.net.aligned.branches.0.3.weight decoder.net.6.net.branches.0.net.1.net.aligned.branches.0.1.weight decoder.net.6.net.branches.0.net.1.net.aligned.branches.0.3.weight decoder.net.6.net.branches.0.net.2.net.aligned.branches.0.1.weight decoder.net.6.net.branches.0.net.2.net.aligned.branches.0.3.weight decoder.net.7.net.1.weight decoder.net.8.net.branches.0.net.0.net.aligned.branches.0.1.weight decoder.net.8.net.branches.0.net.0.net.aligned.branches.0.3.weight decoder.net.8.net.branches.0.net.1.net.aligned.branches.0.1.weight decoder.net.8.net.branches.0.net.1.net.aligned.branches.0.3.weight decoder.net.8.net.branches.0.net.2.net.aligned.branches.0.1.weight decoder.net.8.net.branches.0.net.2.net.aligned.branches.0.3.weight decoder.synth.branches.0.weight decoder.synth.branches.1.weigh, f 39;
#X obj 2080 1857 f;
#X obj 2081 1903 line;
#X floatatom 2081 1928 5 0 0 0 - - - 0;
#X msg 2022 1690 0;
#X obj 2022 1715 t b f;
#X msg 2022 1853 \$1 0;
#X msg 2081 1952 set \$1;
#X msg 2080 1882 \$1 4000 10;
#X obj 2026 1650 r resetModel;
#X floatatom 2041 1608 5 0 0 0 - - - 0;
#X floatatom 1914 1928 5 0 0 0 - - - 0;
#X obj 1978 1775 del 2000;
#X obj 588 1378 del 100;
#X obj 3315 1673 r resetLayer;
#X obj 3315 1698 t b b;
#X obj 3310 1723 array get b_orig;
#X obj 3310 1748 array set weights;
#X obj 1162 346 bng 20 250 50 0 resetLayer empty empty 0 -10 0 12 #fcfcfc #000000 #000000;
#X text 1208 349 Click to reset layer;
#X text 1196 284 Click to reset entire model;
#X obj 2828 498 hsl 170 20 -3 3 0 0 deltaY deltaY_receive empty -2 -10 0 12 #fcfcfc #000000 #000000 0 1;
#X obj 2802 245 hsl 170 20 -1 4 0 0 scale scaleReceive empty -2 -10 0 12 #fcfcfc #000000 #000000 0 1;
#X obj 2834 401 hsl 170 20 0 1 0 0 deltaX deltaX_receive empty -2 -10 0 12 #fcfcfc #000000 #000000 0 1;
#X obj 3008 853 t b f;
#X text 2813 699 1 SHIFT;
#X text 3008 699 2 MULTIPLY;
#X text 3327 699 3 ROLL;
#X obj 3145 730 r weights_flip;
#X obj 3146 754 t b f;
#X obj 3013 1140 *;
#X obj 3012 994 until;
#X msg 3055 994 0;
#X obj 3012 1018 f;
#X obj 3042 1018 + 1;
#X obj 3012 1048 t f f;
#X obj 3013 1192 +;
#X obj 3012 940 array size b_orig;
#X obj 3012 1077 array get b_orig 0 1;
#X obj 3052 1142 +;
#X obj 3064 1191 mod;
#X obj 3012 967 t f b f, f 13;
#X obj 2815 852 t b f;
#X obj 3326 847 t b f;
#X obj 3141 1119 *;
#X obj 3013 1254 array set weights;
#X text 2961 1135 mul;
#X text 2963 1189 add;
#X text 3089 1144 rotate;
#X obj 3008 814 expr ($f1+1) * ($f2*-2+1);
#X obj 2815 728 r deltaY;
#X obj 3008 728 r scale;
#X obj 3324 732 r deltaX;
#X msg 3513 1744 0;
#X obj 3543 1776 s scaleReceive;
#X obj 3589 1803 s deltaX_receive;
#X obj 3612 1832 s deltaY_receive;
#X text 3052 392 deltaX;
#X text 3075 509 deltaY;
#X text 3031 258 scale;
#X obj 1225 -6 r resetModel;
#X obj 1393 -4 r resetLayer;
#X obj 1233 34 bng 20 250 50 0 empty empty empty 0 -10 0 12 #fcfcfc #000000 #000000;
#X msg 1233 59 0;
#X obj 1349 77 del 200;
#X msg 1349 102 1;
#N canvas 2020 81 1165 1029 limiter 0;
#X obj 10 42 inlet~;
#X floatatom 111 129 5 0 0 0 - - - 0;
#X obj 111 153 moses;
#X obj 111 178 bng 20 250 50 0 empty empty empty 0 -10 0 12 #fcfcfc #000000 #000000;
#X msg 111 203 1;
#X obj 10 537 *~;
#X floatatom 250 149 5 0 0 0 - - - 0;
#X floatatom 156 203 5 0 0 0 - - - 0;
#X obj 156 227 expr (($f1 - $f3) / $f2) - $f1 + $f3;
#X floatatom 474 75 5 0 0 0 - - - 0;
#X floatatom 156 252 5 0 0 0 - - - 0;
#X obj 156 276 expr 100 + $f1;
#X floatatom 156 301 5 0 0 0 - - - 0;
#X obj 156 327 dbtorms;
#X floatatom 156 349 20 0 0 0 - - - 0;
#X obj 250 80 inlet;
#X obj 474 45 inlet;
#X obj 10 562 outlet~;
#X obj 113 101 env~ 1024;
#X floatatom 108 438 5 0 0 0 - - - 0;
#X connect 0 0 5 0;
#X connect 0 0 18 0;
#X connect 1 0 2 0;
#X connect 2 0 3 0;
#X connect 2 1 7 0;
#X connect 3 0 4 0;
#X connect 4 0 19 0;
#X connect 5 0 17 0;
#X connect 6 0 8 1;
#X connect 7 0 8 0;
#X connect 8 0 10 0;
#X connect 9 0 8 2;
#X connect 9 0 2 1;
#X connect 10 0 11 0;
#X connect 11 0 12 0;
#X connect 12 0 13 0;
#X connect 13 0 14 0;
#X connect 14 0 19 0;
#X connect 15 0 6 0;
#X connect 16 0 9 0;
#X connect 18 0 1 0;
#X connect 19 0 5 1;
#X restore 1910 2219 pd limiter;
#X obj 1910 2244 dac~;
#X msg 2021 2050 10;
#X obj 2020 2016 loadbang;
#X obj 2021 2074 hsl 170 20 1 20 0 0 empty empty empty -2 -10 0 12 #fcfcfc #000000 #000000 0 1;
#X obj 2220 2046 loadbang;
#X obj 2221 2105 hsl 170 20 0 100 0 0 empty empty empty -2 -10 0 12 #fcfcfc #000000 #000000 0 1;
#X text 2079 2049 Limit Factor;
#X msg 2221 2080 80;
#X obj 993 10 loadbang;
#X msg 2012 177 2;
#X msg 1365 1260 /home/danielmanz/Desktop/metallicJungle/TS_MJ_160_drum_loop_metallic_bell_hard_step.wav, f 104;
#X obj 1375 1206 loadbang;
#X obj 2098 1340 loadbang;
#X msg 2098 1365 1;
#X obj 291 676 loadbang;
#X msg 291 701 \; pd dsp 1;
#N canvas -62 109 3840 2062 socket 0;
#X msg 49 65 listen 9000;
#X obj 49 89 netreceive -u -b;
#X obj 49 120 oscparse;
#X obj 49 145 route list;
#X obj 49 230 route encoderOne;
#X obj 48 32 loadbang;
#N canvas 680 804 929 410 scaleFunction 0;
#X obj 56 38 inlet;
#X obj 131 32 inlet;
#X obj 186 28 inlet;
#X obj 261 22 inlet;
#X obj 331 21 inlet;
#X obj 56 88 outlet;
#X obj 56 63 expr ((($f1-$f2)/($f3-$f2))*(-($f4-$f5))) + $f4;
#X connect 0 0 6 0;
#X connect 1 0 6 1;
#X connect 2 0 6 2;
#X connect 3 0 6 3;
#X connect 4 0 6 4;
#X connect 6 0 5 0;
#X restore 219 594 pd scaleFunction;
#X obj 1104 231 route button;
#X obj 1104 256 sel 1 2;
#X obj 1104 283 bng 20 250 50 0 empty empty empty 0 -10 0 12 #fcfcfc #000000 #000000;
#X obj 1129 284 bng 20 250 50 0 empty empty empty 0 -10 0 12 #fcfcfc #000000 #000000;
#X obj 219 665 s encoderTwo;
#X obj 1104 320 s singleTap;
#X obj 1189 321 s doubleTap;
#X msg 240 550 0;
#X msg 317 551 0;
#X msg 279 551 20;
#X msg 356 552 1;
#N canvas 680 804 929 410 scaleFunction 0;
#X obj 56 38 inlet;
#X obj 131 32 inlet;
#X obj 186 28 inlet;
#X obj 261 22 inlet;
#X obj 331 21 inlet;
#X obj 56 88 outlet;
#X obj 56 63 expr ((($f1-$f2)/($f3-$f2))*(-($f4-$f5))) + $f4;
#X connect 0 0 6 0;
#X connect 1 0 6 1;
#X connect 2 0 6 2;
#X connect 3 0 6 3;
#X connect 4 0 6 4;
#X connect 6 0 5 0;
#X restore 426 614 pd scaleFunction;
#X msg 409 566 0;
#N canvas 680 804 929 410 scaleFunction 0;
#X obj 56 38 inlet;
#X obj 131 32 inlet;
#X obj 186 28 inlet;
#X obj 261 22 inlet;
#X obj 331 21 inlet;
#X obj 56 88 outlet;
#X obj 56 63 expr ((($f1-$f2)/($f3-$f2))*(-($f4-$f5))) + $f4;
#X connect 0 0 6 0;
#X connect 1 0 6 1;
#X connect 2 0 6 2;
#X connect 3 0 6 3;
#X connect 4 0 6 4;
#X connect 6 0 5 0;
#X restore 599 641 pd scaleFunction;
#X msg 685 586 0;
#X msg 724 587 20;
#N canvas 680 804 929 410 scaleFunction 0;
#X obj 56 38 inlet;
#X obj 131 32 inlet;
#X obj 186 28 inlet;
#X obj 261 22 inlet;
#X obj 331 21 inlet;
#X obj 56 88 outlet;
#X obj 56 63 expr ((($f1-$f2)/($f3-$f2))*(-($f4-$f5))) + $f4;
#X connect 0 0 6 0;
#X connect 1 0 6 1;
#X connect 2 0 6 2;
#X connect 3 0 6 3;
#X connect 4 0 6 4;
#X connect 6 0 5 0;
#X restore 786 682 pd scaleFunction;
#X msg 872 627 0;
#X msg 911 628 20;
#X obj 426 685 s encoderThree;
#X obj 599 712 s encoderFour;
#X obj 786 753 s encoderFive;
#X msg 486 567 -3;
#X msg 525 568 3;
#X msg 762 587 -1;
#X msg 801 588 4;
#X msg 949 628 0.01;
#X msg 988 629 1.01;
#X obj 1156 460 loadbang;
#X obj 49 255 sel 1 -1;
#X msg 50 279 1;
#X obj 50 304 +;
#X obj 50 409 int;
#X floatatom 50 432 5 0 0 0 - - - 0;
#X msg 94 279 -1;
#X obj 50 337 expr if ($f1 < 20 \, $f1 \, 20);
#X obj 253 254 sel 1 -1;
#X msg 254 278 1;
#X obj 254 303 +;
#X obj 254 408 int;
#X floatatom 254 431 5 0 0 0 - - - 0;
#X msg 298 278 -1;
#X obj 254 336 expr if ($f1 < 20 \, $f1 \, 20);
#X obj 449 253 sel 1 -1;
#X msg 450 277 1;
#X obj 450 302 +;
#X obj 450 407 int;
#X floatatom 450 430 5 0 0 0 - - - 0;
#X msg 494 277 -1;
#X obj 450 335 expr if ($f1 < 20 \, $f1 \, 20);
#X obj 653 252 sel 1 -1;
#X msg 654 276 1;
#X obj 654 301 +;
#X obj 654 406 int;
#X floatatom 654 429 5 0 0 0 - - - 0;
#X msg 698 276 -1;
#X obj 654 334 expr if ($f1 < 20 \, $f1 \, 20);
#X obj 853 252 sel 1 -1;
#X msg 854 276 1;
#X obj 854 301 +;
#X obj 854 406 int;
#X floatatom 855 434 5 0 0 0 - - - 0;
#X msg 898 276 -1;
#X obj 854 334 expr if ($f1 < 20 \, $f1 \, 20);
#X obj 253 229 route encoderTwo;
#X obj 449 228 route encoderThree;
#X obj 653 227 route encoderFour;
#X obj 853 227 route encoderFive;
#X obj 55 374 expr if ($f1 > 0 \, $f1 \, 0);
#X obj 246 374 expr if ($f1 > 0 \, $f1 \, 0);
#X obj 435 375 expr if ($f1 > 0 \, $f1 \, 0);
#X obj 619 375 expr if ($f1 > 0 \, $f1 \, 0);
#X obj 838 376 expr if ($f1 > 0 \, $f1 \, 0);
#N canvas 680 804 929 410 scaleFunction 0;
#X obj 56 38 inlet;
#X obj 131 32 inlet;
#X obj 186 28 inlet;
#X obj 261 22 inlet;
#X obj 331 21 inlet;
#X obj 56 88 outlet;
#X obj 57 62 expr ((($f1-$f2)/($f3-$f2))*(-($f4-$f5))) + $f4;
#X connect 0 0 6 0;
#X connect 1 0 6 1;
#X connect 2 0 6 2;
#X connect 3 0 6 3;
#X connect 4 0 6 4;
#X connect 6 0 5 0;
#X restore 59 574 pd scaleFunction;
#X msg 80 530 0;
#X msg 157 531 0;
#X msg 119 531 20;
#X msg 196 532 18;
#X floatatom 62 638 5 0 0 0 - - - 0;
#X floatatom 223 629 5 0 0 0 - - - 0;
#X floatatom 436 652 5 0 0 0 - - - 0;
#X floatatom 598 680 5 0 0 0 - - - 0;
#X floatatom 789 721 5 0 0 0 - - - 0;
#X obj 50 456 float;
#X obj 59 599 int;
#X obj 59 671 s encoderOne;
#X obj 254 455 float;
#X obj 450 454 float;
#X obj 654 453 float;
#X obj 855 458 float;
#X msg 448 567 20;
#X msg 375 135 0;
#X msg 523 135 10;
#X msg 689 123 8;
#X msg 909 149 10;
#X obj 215 72 loadbang;
#X msg 275 129 3;
#X obj 912 41 r doubleTap;
#X obj 1646 36 r singleTap;
#X connect 0 0 1 0;
#X connect 1 0 2 0;
#X connect 2 0 3 0;
#X connect 3 0 4 0;
#X connect 3 0 7 0;
#X connect 3 0 71 0;
#X connect 3 0 72 0;
#X connect 3 0 73 0;
#X connect 3 0 74 0;
#X connect 4 0 36 0;
#X connect 5 0 0 0;
#X connect 6 0 86 0;
#X connect 7 0 8 0;
#X connect 8 0 9 0;
#X connect 8 1 10 0;
#X connect 9 0 12 0;
#X connect 10 0 13 0;
#X connect 14 0 6 1;
#X connect 15 0 6 3;
#X connect 16 0 6 2;
#X connect 17 0 6 4;
#X connect 18 0 87 0;
#X connect 19 0 18 1;
#X connect 20 0 88 0;
#X connect 21 0 20 1;
#X connect 22 0 20 2;
#X connect 23 0 89 0;
#X connect 24 0 23 1;
#X connect 25 0 23 2;
#X connect 29 0 18 3;
#X connect 30 0 18 4;
#X connect 31 0 20 3;
#X connect 32 0 20 4;
#X connect 33 0 23 3;
#X connect 34 0 23 4;
#X connect 35 0 14 0;
#X connect 35 0 16 0;
#X connect 35 0 15 0;
#X connect 35 0 17 0;
#X connect 35 0 19 0;
#X connect 35 0 97 0;
#X connect 35 0 29 0;
#X connect 35 0 30 0;
#X connect 35 0 21 0;
#X connect 35 0 22 0;
#X connect 35 0 31 0;
#X connect 35 0 32 0;
#X connect 35 0 24 0;
#X connect 35 0 25 0;
#X connect 35 0 33 0;
#X connect 35 0 34 0;
#X connect 35 0 81 0;
#X connect 35 0 83 0;
#X connect 35 0 82 0;
#X connect 35 0 84 0;
#X connect 36 0 37 0;
#X connect 36 1 41 0;
#X connect 37 0 38 0;
#X connect 38 0 42 0;
#X connect 39 0 38 1;
#X connect 39 0 40 0;
#X connect 40 0 90 0;
#X connect 41 0 38 0;
#X connect 42 0 75 0;
#X connect 43 0 44 0;
#X connect 43 1 48 0;
#X connect 44 0 45 0;
#X connect 45 0 49 0;
#X connect 46 0 45 1;
#X connect 46 0 47 0;
#X connect 47 0 93 0;
#X connect 48 0 45 0;
#X connect 49 0 76 0;
#X connect 50 0 51 0;
#X connect 50 1 55 0;
#X connect 51 0 52 0;
#X connect 52 0 56 0;
#X connect 53 0 52 1;
#X connect 53 0 54 0;
#X connect 54 0 94 0;
#X connect 55 0 52 0;
#X connect 56 0 77 0;
#X connect 57 0 58 0;
#X connect 57 1 62 0;
#X connect 58 0 59 0;
#X connect 59 0 63 0;
#X connect 60 0 59 1;
#X connect 60 0 61 0;
#X connect 61 0 95 0;
#X connect 62 0 59 0;
#X connect 63 0 78 0;
#X connect 64 0 65 0;
#X connect 64 1 69 0;
#X connect 65 0 66 0;
#X connect 66 0 70 0;
#X connect 67 0 66 1;
#X connect 67 0 68 0;
#X connect 68 0 96 0;
#X connect 69 0 66 0;
#X connect 70 0 79 0;
#X connect 71 0 43 0;
#X connect 72 0 50 0;
#X connect 73 0 57 0;
#X connect 74 0 64 0;
#X connect 75 0 39 0;
#X connect 76 0 46 0;
#X connect 77 0 53 0;
#X connect 78 0 60 0;
#X connect 79 0 67 0;
#X connect 80 0 91 0;
#X connect 81 0 80 1;
#X connect 82 0 80 3;
#X connect 83 0 80 2;
#X connect 84 0 80 4;
#X connect 85 0 92 0;
#X connect 86 0 11 0;
#X connect 87 0 26 0;
#X connect 88 0 27 0;
#X connect 89 0 28 0;
#X connect 90 0 80 0;
#X connect 91 0 85 0;
#X connect 93 0 6 0;
#X connect 94 0 18 0;
#X connect 95 0 20 0;
#X connect 96 0 23 0;
#X connect 97 0 18 2;
#X connect 98 0 46 0;
#X connect 99 0 53 0;
#X connect 100 0 60 0;
#X connect 101 0 67 0;
#X connect 102 0 103 0;
#X connect 102 0 98 0;
#X connect 102 0 99 0;
#X connect 102 0 100 0;
#X connect 102 0 101 0;
#X connect 103 0 39 0;
#X connect 104 0 103 0;
#X connect 104 0 98 0;
#X connect 104 0 99 0;
#X connect 104 0 100 0;
#X connect 104 0 101 0;
#X connect 105 0 101 0;
#X connect 105 0 100 0;
#X connect 105 0 98 0;
#X restore 802 883 pd socket;
#X obj 2190 173 r encoderOne;
#X obj 2663 312 r encoderTwo;
#X obj 2672 453 r encoderThree;
#X obj 2632 152 r encoderFour;
#X obj 1556 1508 r encoderFive;
#X obj 1581 1551 loadbang;
#X msg 1581 1576 0.5;
#X obj 2456 131 loadbang;
#X msg 2456 156 1;
#X msg 2488 246 0;
#X msg 2517 297 0;
#X obj 1028 291 r singleTap;
#X obj 994 212 r doubleTap;
#X obj 2490 81 r doubleTap;
#X obj 1736 844 del;
#X connect 0 0 8 0;
#X connect 0 0 12 0;
#X connect 1 0 0 0;
#X connect 2 0 64 1;
#X connect 2 0 73 0;
#X connect 2 0 74 0;
#X connect 3 0 129 0;
#X connect 4 0 3 0;
#X connect 5 0 4 2;
#X connect 6 0 7 0;
#X connect 7 0 4 0;
#X connect 9 0 6 0;
#X connect 10 0 9 0;
#X connect 12 0 4 1;
#X connect 12 1 15 0;
#X connect 14 0 13 0;
#X connect 18 0 23 0;
#X connect 19 0 35 0;
#X connect 20 0 23 1;
#X connect 21 0 18 0;
#X connect 21 1 20 0;
#X connect 22 0 19 0;
#X connect 23 0 22 0;
#X connect 24 0 20 1;
#X connect 26 0 21 0;
#X connect 29 0 30 0;
#X connect 30 0 34 0;
#X connect 32 0 37 0;
#X connect 33 0 12 0;
#X connect 36 0 24 0;
#X connect 38 0 39 0;
#X connect 39 0 41 0;
#X connect 41 0 40 0;
#X connect 42 0 17 0;
#X connect 43 0 42 0;
#X connect 45 0 46 0;
#X connect 45 0 116 0;
#X connect 46 0 47 0;
#X connect 48 0 32 0;
#X connect 49 0 57 0;
#X connect 50 0 51 0;
#X connect 51 0 52 0;
#X connect 52 0 53 0;
#X connect 53 0 49 0;
#X connect 54 0 55 0;
#X connect 55 0 56 0;
#X connect 56 0 48 0;
#X connect 56 1 59 0;
#X connect 58 0 54 0;
#X connect 59 0 48 0;
#X connect 60 0 76 0;
#X connect 61 0 63 0;
#X connect 62 0 139 0;
#X connect 63 0 49 0;
#X connect 64 0 71 0;
#X connect 65 0 66 0;
#X connect 65 0 74 0;
#X connect 66 0 70 0;
#X connect 67 0 68 0;
#X connect 68 0 75 0;
#X connect 68 1 69 0;
#X connect 69 0 65 0;
#X connect 70 0 2 0;
#X connect 71 0 65 0;
#X connect 72 0 67 0;
#X connect 74 0 3 1;
#X connect 75 0 64 0;
#X connect 76 0 48 0;
#X connect 77 0 78 0;
#X connect 78 0 79 0;
#X connect 78 1 116 0;
#X connect 79 0 80 0;
#X connect 87 0 100 0;
#X connect 87 1 93 1;
#X connect 91 0 92 0;
#X connect 92 0 112 0;
#X connect 92 1 112 1;
#X connect 93 0 99 0;
#X connect 94 0 96 0;
#X connect 95 0 96 1;
#X connect 96 0 97 0;
#X connect 96 0 98 0;
#X connect 97 0 96 1;
#X connect 98 0 101 0;
#X connect 98 1 102 0;
#X connect 99 0 108 0;
#X connect 100 0 104 0;
#X connect 101 0 93 0;
#X connect 102 0 103 0;
#X connect 103 0 108 1;
#X connect 104 0 94 0;
#X connect 104 1 95 0;
#X connect 104 2 103 1;
#X connect 104 2 107 0;
#X connect 105 0 100 0;
#X connect 105 1 99 1;
#X connect 106 0 100 0;
#X connect 106 1 107 1;
#X connect 107 0 102 1;
#X connect 112 0 87 0;
#X connect 113 0 105 0;
#X connect 114 0 112 0;
#X connect 115 0 106 0;
#X connect 116 0 117 0;
#X connect 116 0 118 0;
#X connect 116 0 119 0;
#X connect 123 0 125 0;
#X connect 124 0 125 0;
#X connect 125 0 126 0;
#X connect 125 0 127 0;
#X connect 126 0 43 0;
#X connect 127 0 128 0;
#X connect 128 0 43 0;
#X connect 129 0 130 0;
#X connect 129 0 130 1;
#X connect 131 0 133 0;
#X connect 132 0 131 0;
#X connect 133 0 129 1;
#X connect 134 0 137 0;
#X connect 135 0 129 2;
#X connect 137 0 135 0;
#X connect 138 0 43 0;
#X connect 139 0 50 0;
#X connect 140 0 0 1;
#X connect 141 0 140 0;
#X connect 142 0 143 0;
#X connect 143 0 5 0;
#X connect 143 0 2 0;
#X connect 144 0 145 0;
#X connect 147 0 50 0;
#X connect 148 0 86 0;
#X connect 149 0 84 0;
#X connect 150 0 85 0;
#X connect 151 0 2 0;
#X connect 152 0 153 0;
#X connect 153 0 2 0;
#X connect 154 0 155 0;
#X connect 154 0 156 0;
#X connect 154 0 157 0;
#X connect 155 0 85 0;
#X connect 156 0 86 0;
#X connect 157 0 84 0;
#X connect 158 0 81 0;
#X connect 159 0 44 0;
#X connect 160 0 155 0;
#X connect 160 0 156 0;
#X connect 160 0 157 0;
